<?xml version="1.0" encoding="UTF-8" standalone="no"?>
<!DOCTYPE svg PUBLIC "-//W3C//DTD SVG 1.1//EN"
 "http://www.w3.org/Graphics/SVG/1.1/DTD/svg11.dtd">
<!-- Generated by graphviz version 2.43.0 (0)
 -->
<!-- Title: Forests::WindBatchedGeometry Pages: 1 -->
<svg width="266pt" height="196pt"
 viewBox="0.00 0.00 266.00 196.00" xmlns="http://www.w3.org/2000/svg" xmlns:xlink="http://www.w3.org/1999/xlink">
<g id="graph0" class="graph" transform="scale(1 1) rotate(0) translate(4 192)">
<title>Forests::WindBatchedGeometry</title>
<polygon fill="white" stroke="transparent" points="-4,4 -4,-192 262,-192 262,4 -4,4"/>
<!-- Node1 -->
<g id="node1" class="node">
<title>Node1</title>
<g id="a_node1"><a xlink:title="A variation of BatchedGeometry designed for WindBatchPage.">
<polygon fill="#bfbfbf" stroke="black" points="41.5,-0.5 41.5,-19.5 212.5,-19.5 212.5,-0.5 41.5,-0.5"/>
<text text-anchor="middle" x="127" y="-7.5" font-family="Helvetica,sans-Serif" font-size="10.00">Forests::WindBatchedGeometry</text>
</a>
</g>
</g>
<!-- Node2 -->
<g id="node2" class="node">
<title>Node2</title>
<g id="a_node2"><a xlink:href="classForests_1_1BatchedGeometry.html" target="_top" xlink:title="A &quot;lightweight&quot; version of Ogre::StaticGeometry, which gives you a little more control over the batch...">
<polygon fill="white" stroke="black" points="54,-56.5 54,-75.5 200,-75.5 200,-56.5 54,-56.5"/>
<text text-anchor="middle" x="127" y="-63.5" font-family="Helvetica,sans-Serif" font-size="10.00">Forests::BatchedGeometry</text>
</a>
</g>
</g>
<!-- Node2&#45;&gt;Node1 -->
<g id="edge1" class="edge">
<title>Node2&#45;&gt;Node1</title>
<path fill="none" stroke="midnightblue" d="M127,-45.8C127,-36.91 127,-26.78 127,-19.75"/>
<polygon fill="midnightblue" stroke="midnightblue" points="123.5,-46.08 127,-56.08 130.5,-46.08 123.5,-46.08"/>
</g>
<!-- Node3 -->
<g id="node3" class="node">
<title>Node3</title>
<g id="a_node3"><a target="_parent" xlink:href="https://ogrecave.github.io/ogre/api/latest/class_ogre_1_1_movable_object.html" xlink:title=" ">
<polygon fill="white" stroke="black" points="67.5,-112.5 67.5,-131.5 186.5,-131.5 186.5,-112.5 67.5,-112.5"/>
<text text-anchor="middle" x="127" y="-119.5" font-family="Helvetica,sans-Serif" font-size="10.00">Ogre::MovableObject</text>
</a>
</g>
</g>
<!-- Node3&#45;&gt;Node2 -->
<g id="edge2" class="edge">
<title>Node3&#45;&gt;Node2</title>
<path fill="none" stroke="midnightblue" d="M127,-101.8C127,-92.91 127,-82.78 127,-75.75"/>
<polygon fill="midnightblue" stroke="midnightblue" points="123.5,-102.08 127,-112.08 130.5,-102.08 123.5,-102.08"/>
</g>
<!-- Node4 -->
<g id="node4" class="node">
<title>Node4</title>
<g id="a_node4"><a target="_parent" xlink:href="https://ogrecave.github.io/ogre/api/latest/class_ogre_1_1_shadow_caster.html" xlink:title=" ">
<polygon fill="white" stroke="black" points="0,-168.5 0,-187.5 116,-187.5 116,-168.5 0,-168.5"/>
<text text-anchor="middle" x="58" y="-175.5" font-family="Helvetica,sans-Serif" font-size="10.00">Ogre::ShadowCaster</text>
</a>
</g>
</g>
<!-- Node4&#45;&gt;Node3 -->
<g id="edge3" class="edge">
<title>Node4&#45;&gt;Node3</title>
<path fill="none" stroke="midnightblue" d="M77.04,-162.1C89.46,-152.38 105.24,-140.03 115.71,-131.83"/>
<polygon fill="midnightblue" stroke="midnightblue" points="74.8,-159.4 69.09,-168.32 79.12,-164.92 74.8,-159.4"/>
</g>
<!-- Node5 -->
<g id="node5" class="node">
<title>Node5</title>
<g id="a_node5"><a target="_parent" xlink:href="https://ogrecave.github.io/ogre/api/latest/class_ogre_1_1_animable_object.html" xlink:title=" ">
<polygon fill="white" stroke="black" points="134,-168.5 134,-187.5 258,-187.5 258,-168.5 134,-168.5"/>
<text text-anchor="middle" x="196" y="-175.5" font-family="Helvetica,sans-Serif" font-size="10.00">Ogre::AnimableObject</text>
</a>
</g>
</g>
<!-- Node5&#45;&gt;Node3 -->
<g id="edge4" class="edge">
<title>Node5&#45;&gt;Node3</title>
<path fill="none" stroke="midnightblue" d="M176.96,-162.1C164.54,-152.38 148.76,-140.03 138.29,-131.83"/>
<polygon fill="midnightblue" stroke="midnightblue" points="174.88,-164.92 184.91,-168.32 179.2,-159.4 174.88,-164.92"/>
</g>
</g>
</svg>
