<?xml version="1.0" encoding="UTF-8" standalone="no"?>
<!DOCTYPE svg PUBLIC "-//W3C//DTD SVG 1.1//EN"
 "http://www.w3.org/Graphics/SVG/1.1/DTD/svg11.dtd">
<!-- Generated by graphviz version 2.43.0 (0)
 -->
<!-- Title: Forests::PageLoader Pages: 1 -->
<svg width="413pt" height="84pt"
 viewBox="0.00 0.00 413.00 84.00" xmlns="http://www.w3.org/2000/svg" xmlns:xlink="http://www.w3.org/1999/xlink">
<g id="graph0" class="graph" transform="scale(1 1) rotate(0) translate(4 80)">
<title>Forests::PageLoader</title>
<polygon fill="white" stroke="transparent" points="-4,4 -4,-80 409,-80 409,4 -4,4"/>
<!-- Node1 -->
<g id="node1" class="node">
<title>Node1</title>
<g id="a_node1"><a xlink:title="A class which you extend to provide a callback function for loading entities.">
<polygon fill="#bfbfbf" stroke="black" points="142,-56.5 142,-75.5 257,-75.5 257,-56.5 142,-56.5"/>
<text text-anchor="middle" x="199.5" y="-63.5" font-family="Helvetica,sans-Serif" font-size="10.00">Forests::PageLoader</text>
</a>
</g>
</g>
<!-- Node2 -->
<g id="node2" class="node">
<title>Node2</title>
<g id="a_node2"><a xlink:href="classForests_1_1GrassLoader.html" target="_top" xlink:title="A PageLoader&#45;derived object you can use with PagedGeometry to produce realistic grass.">
<polygon fill="white" stroke="black" points="0,-0.5 0,-19.5 119,-19.5 119,-0.5 0,-0.5"/>
<text text-anchor="middle" x="59.5" y="-7.5" font-family="Helvetica,sans-Serif" font-size="10.00">Forests::GrassLoader</text>
</a>
</g>
</g>
<!-- Node1&#45;&gt;Node2 -->
<g id="edge1" class="edge">
<title>Node1&#45;&gt;Node2</title>
<path fill="none" stroke="midnightblue" d="M167.8,-52.77C141.5,-42.63 104.78,-28.47 81.58,-19.52"/>
<polygon fill="midnightblue" stroke="midnightblue" points="166.73,-56.11 177.32,-56.44 169.25,-49.58 166.73,-56.11"/>
</g>
<!-- Node3 -->
<g id="node3" class="node">
<title>Node3</title>
<g id="a_node3"><a xlink:href="classForests_1_1TreeLoader2D.html" target="_top" xlink:title="A PageLoader&#45;derived object you can use with PagedGeometry to easily place trees on your terrain.">
<polygon fill="white" stroke="black" points="137,-0.5 137,-19.5 262,-19.5 262,-0.5 137,-0.5"/>
<text text-anchor="middle" x="199.5" y="-7.5" font-family="Helvetica,sans-Serif" font-size="10.00">Forests::TreeLoader2D</text>
</a>
</g>
</g>
<!-- Node1&#45;&gt;Node3 -->
<g id="edge2" class="edge">
<title>Node1&#45;&gt;Node3</title>
<path fill="none" stroke="midnightblue" d="M199.5,-45.8C199.5,-36.91 199.5,-26.78 199.5,-19.75"/>
<polygon fill="midnightblue" stroke="midnightblue" points="196,-46.08 199.5,-56.08 203,-46.08 196,-46.08"/>
</g>
<!-- Node4 -->
<g id="node4" class="node">
<title>Node4</title>
<g id="a_node4"><a xlink:href="classForests_1_1TreeLoader3D.html" target="_top" xlink:title="A PageLoader&#45;derived object you can use with PagedGeometry to easily place trees on your terrain.">
<polygon fill="white" stroke="black" points="280,-0.5 280,-19.5 405,-19.5 405,-0.5 280,-0.5"/>
<text text-anchor="middle" x="342.5" y="-7.5" font-family="Helvetica,sans-Serif" font-size="10.00">Forests::TreeLoader3D</text>
</a>
</g>
</g>
<!-- Node1&#45;&gt;Node4 -->
<g id="edge3" class="edge">
<title>Node1&#45;&gt;Node4</title>
<path fill="none" stroke="midnightblue" d="M231.53,-52.91C258.41,-42.75 296.14,-28.51 319.95,-19.52"/>
<polygon fill="midnightblue" stroke="midnightblue" points="230.28,-49.64 222.16,-56.44 232.75,-56.19 230.28,-49.64"/>
</g>
</g>
</svg>
