<?xml version="1.0" encoding="UTF-8" standalone="no"?>
<!DOCTYPE svg PUBLIC "-//W3C//DTD SVG 1.1//EN"
 "http://www.w3.org/Graphics/SVG/1.1/DTD/svg11.dtd">
<!-- Generated by graphviz version 2.43.0 (0)
 -->
<!-- Title: Forests::GeometryPage Pages: 1 -->
<svg width="402pt" height="140pt"
 viewBox="0.00 0.00 401.50 140.00" xmlns="http://www.w3.org/2000/svg" xmlns:xlink="http://www.w3.org/1999/xlink">
<g id="graph0" class="graph" transform="scale(1 1) rotate(0) translate(4 136)">
<title>Forests::GeometryPage</title>
<polygon fill="white" stroke="transparent" points="-4,4 -4,-136 397.5,-136 397.5,4 -4,4"/>
<!-- Node1 -->
<g id="node1" class="node">
<title>Node1</title>
<g id="a_node1"><a xlink:title="This base&#45;class can be extended to provide different ways of representing entities.">
<polygon fill="#bfbfbf" stroke="black" points="129.5,-112.5 129.5,-131.5 260.5,-131.5 260.5,-112.5 129.5,-112.5"/>
<text text-anchor="middle" x="195" y="-119.5" font-family="Helvetica,sans-Serif" font-size="10.00">Forests::GeometryPage</text>
</a>
</g>
</g>
<!-- Node2 -->
<g id="node2" class="node">
<title>Node2</title>
<g id="a_node2"><a xlink:href="classForests_1_1BatchPage.html" target="_top" xlink:title="The BatchPage class renders entities as StaticGeometry.">
<polygon fill="white" stroke="black" points="12,-56.5 12,-75.5 122,-75.5 122,-56.5 12,-56.5"/>
<text text-anchor="middle" x="67" y="-63.5" font-family="Helvetica,sans-Serif" font-size="10.00">Forests::BatchPage</text>
</a>
</g>
</g>
<!-- Node1&#45;&gt;Node2 -->
<g id="edge1" class="edge">
<title>Node1&#45;&gt;Node2</title>
<path fill="none" stroke="midnightblue" d="M165.38,-108.5C141.38,-98.38 108.22,-84.39 87.19,-75.52"/>
<polygon fill="midnightblue" stroke="midnightblue" points="164.14,-111.78 174.72,-112.44 166.86,-105.33 164.14,-111.78"/>
</g>
<!-- Node4 -->
<g id="node4" class="node">
<title>Node4</title>
<g id="a_node4"><a xlink:href="classForests_1_1GrassPage.html" target="_top" xlink:title="A custom page type designed specifically for use with GrassLoader.">
<polygon fill="white" stroke="black" points="140,-56.5 140,-75.5 250,-75.5 250,-56.5 140,-56.5"/>
<text text-anchor="middle" x="195" y="-63.5" font-family="Helvetica,sans-Serif" font-size="10.00">Forests::GrassPage</text>
</a>
</g>
</g>
<!-- Node1&#45;&gt;Node4 -->
<g id="edge3" class="edge">
<title>Node1&#45;&gt;Node4</title>
<path fill="none" stroke="midnightblue" d="M195,-101.8C195,-92.91 195,-82.78 195,-75.75"/>
<polygon fill="midnightblue" stroke="midnightblue" points="191.5,-102.08 195,-112.08 198.5,-102.08 191.5,-102.08"/>
</g>
<!-- Node5 -->
<g id="node5" class="node">
<title>Node5</title>
<g id="a_node5"><a xlink:href="classForests_1_1ImpostorPage.html" target="_top" xlink:title="The ImpostorPage class renders entities as impostors (billboard images that look just like the real e...">
<polygon fill="white" stroke="black" points="268.5,-56.5 268.5,-75.5 393.5,-75.5 393.5,-56.5 268.5,-56.5"/>
<text text-anchor="middle" x="331" y="-63.5" font-family="Helvetica,sans-Serif" font-size="10.00">Forests::ImpostorPage</text>
</a>
</g>
</g>
<!-- Node1&#45;&gt;Node5 -->
<g id="edge4" class="edge">
<title>Node1&#45;&gt;Node5</title>
<path fill="none" stroke="midnightblue" d="M226.13,-108.64C251.66,-98.5 287.11,-84.43 309.55,-75.52"/>
<polygon fill="midnightblue" stroke="midnightblue" points="224.55,-105.5 216.55,-112.44 227.14,-112.01 224.55,-105.5"/>
</g>
<!-- Node3 -->
<g id="node3" class="node">
<title>Node3</title>
<g id="a_node3"><a xlink:href="classForests_1_1WindBatchPage.html" target="_top" xlink:title="The WindBatchPage class renders entities as StaticGeometry with hardware accelerated wind animation c...">
<polygon fill="white" stroke="black" points="0,-0.5 0,-19.5 134,-19.5 134,-0.5 0,-0.5"/>
<text text-anchor="middle" x="67" y="-7.5" font-family="Helvetica,sans-Serif" font-size="10.00">Forests::WindBatchPage</text>
</a>
</g>
</g>
<!-- Node2&#45;&gt;Node3 -->
<g id="edge2" class="edge">
<title>Node2&#45;&gt;Node3</title>
<path fill="none" stroke="midnightblue" d="M67,-45.8C67,-36.91 67,-26.78 67,-19.75"/>
<polygon fill="midnightblue" stroke="midnightblue" points="63.5,-46.08 67,-56.08 70.5,-46.08 63.5,-46.08"/>
</g>
</g>
</svg>
