<?xml version="1.0" encoding="UTF-8" standalone="no"?>
<!DOCTYPE svg PUBLIC "-//W3C//DTD SVG 1.1//EN"
 "http://www.w3.org/Graphics/SVG/1.1/DTD/svg11.dtd">
<!-- Generated by graphviz version 2.43.0 (0)
 -->
<!-- Title: Graphical Class Hierarchy Pages: 1 -->
<svg width="284pt" height="104pt"
 viewBox="0.00 0.00 284.00 104.00" xmlns="http://www.w3.org/2000/svg" xmlns:xlink="http://www.w3.org/1999/xlink">
<g id="graph0" class="graph" transform="scale(1 1) rotate(0) translate(4 100)">
<title>Graphical Class Hierarchy</title>
<polygon fill="white" stroke="transparent" points="-4,4 -4,-100 280,-100 280,4 -4,4"/>
<!-- Node0 -->
<g id="node1" class="node">
<title>Node0</title>
<g id="a_node1"><a xlink:href="classForests_1_1PageLoader.html" target="_top" xlink:title="A class which you extend to provide a callback function for loading entities.">
<polygon fill="white" stroke="black" points="0,-38.5 0,-57.5 115,-57.5 115,-38.5 0,-38.5"/>
<text text-anchor="middle" x="57.5" y="-45.5" font-family="Helvetica,sans-Serif" font-size="10.00">Forests::PageLoader</text>
</a>
</g>
</g>
<!-- Node1 -->
<g id="node2" class="node">
<title>Node1</title>
<g id="a_node2"><a xlink:href="classForests_1_1GrassLoader.html" target="_top" xlink:title="A PageLoader&#45;derived object you can use with PagedGeometry to produce realistic grass.">
<polygon fill="white" stroke="black" points="154,-76.5 154,-95.5 273,-95.5 273,-76.5 154,-76.5"/>
<text text-anchor="middle" x="213.5" y="-83.5" font-family="Helvetica,sans-Serif" font-size="10.00">Forests::GrassLoader</text>
</a>
</g>
</g>
<!-- Node0&#45;&gt;Node1 -->
<g id="edge1" class="edge">
<title>Node0&#45;&gt;Node1</title>
<path fill="none" stroke="midnightblue" d="M107.29,-60.04C128.81,-65.35 153.73,-71.5 173.92,-76.48"/>
<polygon fill="midnightblue" stroke="midnightblue" points="107.91,-56.59 97.36,-57.59 106.23,-63.38 107.91,-56.59"/>
</g>
<!-- Node2 -->
<g id="node3" class="node">
<title>Node2</title>
<g id="a_node3"><a xlink:href="classForests_1_1TreeLoader2D.html" target="_top" xlink:title="A PageLoader&#45;derived object you can use with PagedGeometry to easily place trees on your terrain.">
<polygon fill="white" stroke="black" points="151,-38.5 151,-57.5 276,-57.5 276,-38.5 151,-38.5"/>
<text text-anchor="middle" x="213.5" y="-45.5" font-family="Helvetica,sans-Serif" font-size="10.00">Forests::TreeLoader2D</text>
</a>
</g>
</g>
<!-- Node0&#45;&gt;Node2 -->
<g id="edge2" class="edge">
<title>Node0&#45;&gt;Node2</title>
<path fill="none" stroke="midnightblue" d="M125.57,-48C134,-48 142.58,-48 150.91,-48"/>
<polygon fill="midnightblue" stroke="midnightblue" points="125.41,-44.5 115.41,-48 125.41,-51.5 125.41,-44.5"/>
</g>
<!-- Node3 -->
<g id="node4" class="node">
<title>Node3</title>
<g id="a_node4"><a xlink:href="classForests_1_1TreeLoader3D.html" target="_top" xlink:title="A PageLoader&#45;derived object you can use with PagedGeometry to easily place trees on your terrain.">
<polygon fill="white" stroke="black" points="151,-0.5 151,-19.5 276,-19.5 276,-0.5 151,-0.5"/>
<text text-anchor="middle" x="213.5" y="-7.5" font-family="Helvetica,sans-Serif" font-size="10.00">Forests::TreeLoader3D</text>
</a>
</g>
</g>
<!-- Node0&#45;&gt;Node3 -->
<g id="edge3" class="edge">
<title>Node0&#45;&gt;Node3</title>
<path fill="none" stroke="midnightblue" d="M107.29,-35.96C128.81,-30.65 153.73,-24.5 173.92,-19.52"/>
<polygon fill="midnightblue" stroke="midnightblue" points="106.23,-32.62 97.36,-38.41 107.91,-39.41 106.23,-32.62"/>
</g>
</g>
</svg>
