<?xml version="1.0" encoding="UTF-8" standalone="no"?>
<!DOCTYPE svg PUBLIC "-//W3C//DTD SVG 1.1//EN"
 "http://www.w3.org/Graphics/SVG/1.1/DTD/svg11.dtd">
<!-- Generated by graphviz version 2.43.0 (0)
 -->
<!-- Title: Graphical Class Hierarchy Pages: 1 -->
<svg width="470pt" height="104pt"
 viewBox="0.00 0.00 470.00 104.00" xmlns="http://www.w3.org/2000/svg" xmlns:xlink="http://www.w3.org/1999/xlink">
<g id="graph0" class="graph" transform="scale(1 1) rotate(0) translate(4 100)">
<title>Graphical Class Hierarchy</title>
<polygon fill="white" stroke="transparent" points="-4,4 -4,-100 466,-100 466,4 -4,4"/>
<!-- Node0 -->
<g id="node1" class="node">
<title>Node0</title>
<g id="a_node1"><a xlink:href="classForests_1_1GeometryPage.html" target="_top" xlink:title="This base&#45;class can be extended to provide different ways of representing entities.">
<polygon fill="white" stroke="black" points="0,-38.5 0,-57.5 131,-57.5 131,-38.5 0,-38.5"/>
<text text-anchor="middle" x="65.5" y="-45.5" font-family="Helvetica,sans-Serif" font-size="10.00">Forests::GeometryPage</text>
</a>
</g>
</g>
<!-- Node1 -->
<g id="node2" class="node">
<title>Node1</title>
<g id="a_node2"><a xlink:href="classForests_1_1BatchPage.html" target="_top" xlink:title="The BatchPage class renders entities as StaticGeometry.">
<polygon fill="white" stroke="black" points="174.5,-76.5 174.5,-95.5 284.5,-95.5 284.5,-76.5 174.5,-76.5"/>
<text text-anchor="middle" x="229.5" y="-83.5" font-family="Helvetica,sans-Serif" font-size="10.00">Forests::BatchPage</text>
</a>
</g>
</g>
<!-- Node0&#45;&gt;Node1 -->
<g id="edge1" class="edge">
<title>Node0&#45;&gt;Node1</title>
<path fill="none" stroke="midnightblue" d="M117.21,-59.9C139.99,-65.24 166.49,-71.45 187.91,-76.48"/>
<polygon fill="midnightblue" stroke="midnightblue" points="117.91,-56.47 107.38,-57.59 116.32,-63.28 117.91,-56.47"/>
</g>
<!-- Node3 -->
<g id="node4" class="node">
<title>Node3</title>
<g id="a_node4"><a xlink:href="classForests_1_1GrassPage.html" target="_top" xlink:title="A custom page type designed specifically for use with GrassLoader.">
<polygon fill="white" stroke="black" points="174.5,-38.5 174.5,-57.5 284.5,-57.5 284.5,-38.5 174.5,-38.5"/>
<text text-anchor="middle" x="229.5" y="-45.5" font-family="Helvetica,sans-Serif" font-size="10.00">Forests::GrassPage</text>
</a>
</g>
</g>
<!-- Node0&#45;&gt;Node3 -->
<g id="edge3" class="edge">
<title>Node0&#45;&gt;Node3</title>
<path fill="none" stroke="midnightblue" d="M141.57,-48C152.66,-48 163.9,-48 174.45,-48"/>
<polygon fill="midnightblue" stroke="midnightblue" points="141.46,-44.5 131.46,-48 141.46,-51.5 141.46,-44.5"/>
</g>
<!-- Node4 -->
<g id="node5" class="node">
<title>Node4</title>
<g id="a_node5"><a xlink:href="classForests_1_1ImpostorPage.html" target="_top" xlink:title="The ImpostorPage class renders entities as impostors (billboard images that look just like the real e...">
<polygon fill="white" stroke="black" points="167,-0.5 167,-19.5 292,-19.5 292,-0.5 167,-0.5"/>
<text text-anchor="middle" x="229.5" y="-7.5" font-family="Helvetica,sans-Serif" font-size="10.00">Forests::ImpostorPage</text>
</a>
</g>
</g>
<!-- Node0&#45;&gt;Node4 -->
<g id="edge4" class="edge">
<title>Node0&#45;&gt;Node4</title>
<path fill="none" stroke="midnightblue" d="M117.21,-36.1C139.99,-30.76 166.49,-24.55 187.91,-19.52"/>
<polygon fill="midnightblue" stroke="midnightblue" points="116.32,-32.72 107.38,-38.41 117.91,-39.53 116.32,-32.72"/>
</g>
<!-- Node2 -->
<g id="node3" class="node">
<title>Node2</title>
<g id="a_node3"><a xlink:href="classForests_1_1WindBatchPage.html" target="_top" xlink:title="The WindBatchPage class renders entities as StaticGeometry with hardware accelerated wind animation c...">
<polygon fill="white" stroke="black" points="328,-76.5 328,-95.5 462,-95.5 462,-76.5 328,-76.5"/>
<text text-anchor="middle" x="395" y="-83.5" font-family="Helvetica,sans-Serif" font-size="10.00">Forests::WindBatchPage</text>
</a>
</g>
</g>
<!-- Node1&#45;&gt;Node2 -->
<g id="edge2" class="edge">
<title>Node1&#45;&gt;Node2</title>
<path fill="none" stroke="midnightblue" d="M295.11,-86C305.88,-86 317.06,-86 327.86,-86"/>
<polygon fill="midnightblue" stroke="midnightblue" points="294.94,-82.5 284.94,-86 294.94,-89.5 294.94,-82.5"/>
</g>
</g>
</svg>
