<?xml version="1.0" encoding="UTF-8" standalone="no"?>
<!DOCTYPE svg PUBLIC "-//W3C//DTD SVG 1.1//EN"
 "http://www.w3.org/Graphics/SVG/1.1/DTD/svg11.dtd">
<!-- Generated by graphviz version 2.43.0 (0)
 -->
<!-- Title: Graphical Class Hierarchy Pages: 1 -->
<svg width="498pt" height="39pt"
 viewBox="0.00 0.00 498.00 39.00" xmlns="http://www.w3.org/2000/svg" xmlns:xlink="http://www.w3.org/1999/xlink">
<g id="graph0" class="graph" transform="scale(1 1) rotate(0) translate(4 35)">
<title>Graphical Class Hierarchy</title>
<polygon fill="white" stroke="transparent" points="-4,4 -4,-35 494,-35 494,4 -4,4"/>
<!-- Node0 -->
<g id="node1" class="node">
<title>Node0</title>
<g id="a_node1"><a target="_parent" xlink:href="https://ogrecave.github.io/ogre/api/latest/class_ogre_1_1_renderable.html" xlink:title=" ">
<polygon fill="white" stroke="black" points="0,-6 0,-25 101,-25 101,-6 0,-6"/>
<text text-anchor="middle" x="50.5" y="-13" font-family="Helvetica,sans-Serif" font-size="10.00">Ogre::Renderable</text>
</a>
</g>
</g>
<!-- Node1 -->
<g id="node2" class="node">
<title>Node1</title>
<g id="a_node2"><a xlink:href="classForests_1_1BatchedGeometry_1_1SubBatch.html" target="_top" xlink:title="Visible chunk of geometry.">
<polygon fill="white" stroke="black" points="137,-0.5 137,-30.5 283,-30.5 283,-0.5 137,-0.5"/>
<text text-anchor="start" x="145" y="-18.5" font-family="Helvetica,sans-Serif" font-size="10.00">Forests::BatchedGeometry</text>
<text text-anchor="middle" x="210" y="-7.5" font-family="Helvetica,sans-Serif" font-size="10.00">::SubBatch</text>
</a>
</g>
</g>
<!-- Node0&#45;&gt;Node1 -->
<g id="edge1" class="edge">
<title>Node0&#45;&gt;Node1</title>
<path fill="none" stroke="midnightblue" d="M111.58,-15.5C119.81,-15.5 128.34,-15.5 136.76,-15.5"/>
<polygon fill="midnightblue" stroke="midnightblue" points="111.33,-12 101.33,-15.5 111.33,-19 111.33,-12"/>
</g>
<!-- Node2 -->
<g id="node3" class="node">
<title>Node2</title>
<g id="a_node3"><a xlink:href="classForests_1_1WindBatchedGeometry_1_1WindSubBatch.html" target="_top" xlink:title="Wind chunck of Renderable geometry.">
<polygon fill="white" stroke="black" points="319,-0.5 319,-30.5 490,-30.5 490,-0.5 319,-0.5"/>
<text text-anchor="start" x="327" y="-18.5" font-family="Helvetica,sans-Serif" font-size="10.00">Forests::WindBatchedGeometry</text>
<text text-anchor="middle" x="404.5" y="-7.5" font-family="Helvetica,sans-Serif" font-size="10.00">::WindSubBatch</text>
</a>
</g>
</g>
<!-- Node1&#45;&gt;Node2 -->
<g id="edge2" class="edge">
<title>Node1&#45;&gt;Node2</title>
<path fill="none" stroke="midnightblue" d="M293.42,-15.5C301.85,-15.5 310.42,-15.5 318.87,-15.5"/>
<polygon fill="midnightblue" stroke="midnightblue" points="293.23,-12 283.23,-15.5 293.23,-19 293.23,-12"/>
</g>
</g>
</svg>
