<?xml version="1.0" encoding="UTF-8" standalone="no"?>
<!DOCTYPE svg PUBLIC "-//W3C//DTD SVG 1.1//EN"
 "http://www.w3.org/Graphics/SVG/1.1/DTD/svg11.dtd">
<!-- Generated by graphviz version 2.43.0 (0)
 -->
<!-- Title: Graphical Class Hierarchy Pages: 1 -->
<svg width="676pt" height="66pt"
 viewBox="0.00 0.00 676.00 66.00" xmlns="http://www.w3.org/2000/svg" xmlns:xlink="http://www.w3.org/1999/xlink">
<g id="graph0" class="graph" transform="scale(1 1) rotate(0) translate(4 62)">
<title>Graphical Class Hierarchy</title>
<polygon fill="white" stroke="transparent" points="-4,4 -4,-62 672,-62 672,4 -4,4"/>
<!-- Node0 -->
<g id="node1" class="node">
<title>Node0</title>
<g id="a_node1"><a target="_parent" xlink:href="https://ogrecave.github.io/ogre/api/latest/class_ogre_1_1_animable_object.html" xlink:title=" ">
<polygon fill="white" stroke="black" points="0,-38.5 0,-57.5 124,-57.5 124,-38.5 0,-38.5"/>
<text text-anchor="middle" x="62" y="-45.5" font-family="Helvetica,sans-Serif" font-size="10.00">Ogre::AnimableObject</text>
</a>
</g>
</g>
<!-- Node1 -->
<g id="node2" class="node">
<title>Node1</title>
<g id="a_node2"><a target="_parent" xlink:href="https://ogrecave.github.io/ogre/api/latest/class_ogre_1_1_movable_object.html" xlink:title=" ">
<polygon fill="white" stroke="black" points="160,-19.5 160,-38.5 279,-38.5 279,-19.5 160,-19.5"/>
<text text-anchor="middle" x="219.5" y="-26.5" font-family="Helvetica,sans-Serif" font-size="10.00">Ogre::MovableObject</text>
</a>
</g>
</g>
<!-- Node0&#45;&gt;Node1 -->
<g id="edge1" class="edge">
<title>Node0&#45;&gt;Node1</title>
<path fill="none" stroke="midnightblue" d="M134.09,-39.31C142.75,-38.26 151.51,-37.19 159.95,-36.15"/>
<polygon fill="midnightblue" stroke="midnightblue" points="133.51,-35.86 124.01,-40.55 134.36,-42.81 133.51,-35.86"/>
</g>
<!-- Node2 -->
<g id="node3" class="node">
<title>Node2</title>
<g id="a_node3"><a xlink:href="classForests_1_1BatchedGeometry.html" target="_top" xlink:title="A &quot;lightweight&quot; version of Ogre::StaticGeometry, which gives you a little more control over the batch...">
<polygon fill="white" stroke="black" points="315,-19.5 315,-38.5 461,-38.5 461,-19.5 315,-19.5"/>
<text text-anchor="middle" x="388" y="-26.5" font-family="Helvetica,sans-Serif" font-size="10.00">Forests::BatchedGeometry</text>
</a>
</g>
</g>
<!-- Node1&#45;&gt;Node2 -->
<g id="edge2" class="edge">
<title>Node1&#45;&gt;Node2</title>
<path fill="none" stroke="midnightblue" d="M289.34,-29C297.75,-29 306.36,-29 314.82,-29"/>
<polygon fill="midnightblue" stroke="midnightblue" points="289.2,-25.5 279.2,-29 289.2,-32.5 289.2,-25.5"/>
</g>
<!-- Node3 -->
<g id="node4" class="node">
<title>Node3</title>
<g id="a_node4"><a xlink:href="classForests_1_1WindBatchedGeometry.html" target="_top" xlink:title="A variation of BatchedGeometry designed for WindBatchPage.">
<polygon fill="white" stroke="black" points="497,-19.5 497,-38.5 668,-38.5 668,-19.5 497,-19.5"/>
<text text-anchor="middle" x="582.5" y="-26.5" font-family="Helvetica,sans-Serif" font-size="10.00">Forests::WindBatchedGeometry</text>
</a>
</g>
</g>
<!-- Node2&#45;&gt;Node3 -->
<g id="edge3" class="edge">
<title>Node2&#45;&gt;Node3</title>
<path fill="none" stroke="midnightblue" d="M471.42,-29C479.85,-29 488.42,-29 496.87,-29"/>
<polygon fill="midnightblue" stroke="midnightblue" points="471.23,-25.5 461.23,-29 471.23,-32.5 471.23,-25.5"/>
</g>
<!-- Node29 -->
<g id="node5" class="node">
<title>Node29</title>
<g id="a_node5"><a target="_parent" xlink:href="https://ogrecave.github.io/ogre/api/latest/class_ogre_1_1_shadow_caster.html" xlink:title=" ">
<polygon fill="white" stroke="black" points="4,-0.5 4,-19.5 120,-19.5 120,-0.5 4,-0.5"/>
<text text-anchor="middle" x="62" y="-7.5" font-family="Helvetica,sans-Serif" font-size="10.00">Ogre::ShadowCaster</text>
</a>
</g>
</g>
<!-- Node29&#45;&gt;Node1 -->
<g id="edge4" class="edge">
<title>Node29&#45;&gt;Node1</title>
<path fill="none" stroke="midnightblue" d="M130.21,-18.21C140.1,-19.42 150.23,-20.66 159.92,-21.84"/>
<polygon fill="midnightblue" stroke="midnightblue" points="130.37,-14.71 120.02,-16.97 129.52,-21.65 130.37,-14.71"/>
</g>
</g>
</svg>
